<svg width="51" height="50" viewBox="0 0 51 50" fill="none" xmlns="http://www.w3.org/2000/svg">
<path d="M45.8125 25C45.8125 13.7822 36.7178 4.6875 25.5 4.6875C14.2822 4.6875 5.1875 13.7822 5.1875 25C5.1875 36.2178 14.2822 45.3125 25.5 45.3125C36.7178 45.3125 45.8125 36.2178 45.8125 25Z" stroke="#FF01A2" stroke-width="0.5" stroke-miterlimit="10"/>
<path d="M44.0127 16.8105C42.4443 16.8203 42.5986 19.7138 40.6445 18.3486C39.919 17.8427 39.4727 17.1074 38.5615 16.8837C37.7656 16.6884 36.9502 16.8916 36.1641 17.0273C35.2705 17.1816 34.2109 17.2509 33.5332 17.9277C32.8779 18.5791 32.5313 19.4531 31.834 20.1084C30.4854 21.3779 29.916 22.7636 30.7891 24.5585C31.6289 26.2841 33.3858 27.2207 35.2813 27.0976C37.1436 26.9736 39.0781 25.8935 39.0244 28.5996C39.0049 29.5566 39.2051 30.2207 39.499 31.1103C39.7715 31.9306 39.7529 32.7255 39.8154 33.5722C39.9307 35.1542 40.2217 36.9277 41.0068 38.3251L42.4717 36.2587C42.6524 36.0029 43.0303 35.6445 43.1201 35.3427C43.2793 34.8085 42.9658 33.8906 42.9297 33.2919C42.8936 32.6933 42.9111 32.0869 42.8193 31.4882C42.6904 30.6494 42.1943 29.8632 42.126 29.0341C42 27.4902 42.2822 26.2578 41.0928 24.9667C39.9443 23.7216 38.2608 23.4228 36.6524 23.6757C35.8418 23.8027 32.5791 24.3242 33.8887 22.4716C34.1475 22.1074 34.5996 21.8085 34.8906 21.4619C35.1436 21.1601 35.3633 20.6054 35.6602 20.3701C35.957 20.1347 37.3203 19.8642 37.7109 19.9843C38.1016 20.1044 38.5088 20.6679 38.8477 20.9179C39.4738 21.3895 40.2044 21.7031 40.9775 21.832C42.3115 22.0273 45.1006 21.2519 45.0791 19.541C45.0752 18.7207 44.3135 17.5781 44.0127 16.8105ZM28.5713 30.8886C28.0508 28.6972 25.0733 27.9648 23.4678 26.7763C22.5449 26.0927 21.7236 25.0371 20.5117 24.9511C19.9531 24.9111 19.4854 25.0322 18.9317 24.8886C18.4238 24.7578 18.0254 24.4843 17.4844 24.5556C16.4736 24.6884 15.8359 25.7685 14.75 25.622C13.7197 25.4834 12.6582 24.2783 12.4238 23.2968C12.1231 22.0351 13.1211 21.6259 14.1904 21.5136C14.6367 21.4667 15.1377 21.416 15.5664 21.5791C16.1309 21.789 16.3975 22.3417 16.9043 22.621C17.8545 23.1416 18.0469 22.3095 17.9014 21.4658C17.6836 20.2021 17.4297 19.6865 18.5566 18.8173C19.3379 18.2177 20.0059 17.7841 19.8809 16.707C19.8067 16.0742 19.46 15.788 19.7832 15.1582C20.0283 14.6787 20.7012 14.246 21.1397 13.9599C22.2715 13.2216 25.9883 13.2763 24.4697 11.2099C24.0234 10.6035 23.2002 9.51948 22.419 9.37105C21.4424 9.18648 21.0088 10.2763 20.3281 10.7568C19.625 11.2539 18.2559 11.8183 17.5518 11.0498C16.6045 10.0156 18.1797 9.67573 18.5283 8.95405C18.877 8.23237 17.7207 6.86812 17.1016 6.52241L14.1904 9.78706C14.1068 10.3338 14.1359 10.8919 14.276 11.4269C14.4161 11.962 14.6641 12.4628 15.0049 12.8984C15.584 13.6435 16.5059 13.8828 16.5479 14.9003C16.5889 15.8769 16.4365 16.3769 15.7979 17.0634C15.5215 17.3564 15.3262 17.7724 15.0449 18.0468C14.7002 18.3818 14.8281 18.2792 14.29 18.371C13.2783 18.5419 12.417 18.8056 11.4395 19.0751C9.81056 19.5253 9.66017 16.8642 8.91798 15.8203L6.47657 17.7919C6.45021 18.1152 6.87696 18.7099 6.99317 19.0615C7.66017 21.0703 9.00587 22.624 9.87501 24.5459C10.79 26.581 13.2471 26.0166 14.332 27.7998C15.2949 29.3818 14.2666 31.3847 14.9873 33.041C15.5108 34.2431 16.7451 34.5058 17.5967 35.3847C18.4668 36.2724 18.4483 37.4873 18.5811 38.6425C18.7308 40.0014 18.9739 41.3483 19.3086 42.6738C19.4268 43.1318 19.5352 43.7373 19.8486 44.1152C20.0635 44.375 20.8008 44.5986 20.5029 44.6845C20.919 44.7529 21.6602 45.1416 22.0068 44.8564C22.4639 44.4814 22.3418 43.3271 22.4209 42.8056C22.6582 41.2529 23.4356 39.7343 24.4844 38.5722C25.5205 37.4257 26.9404 36.6494 27.8154 35.3496C28.668 34.082 28.9248 32.372 28.5713 30.8886ZM25.3106 33.4589C24.7246 34.5048 23.4199 35.205 22.5811 36.0361C22.3535 36.2617 21.8691 37.0429 21.584 36.874C21.3799 36.7529 21.3106 35.7392 21.2354 35.5068C20.8474 34.3364 20.1069 33.3148 19.1152 32.582C18.8096 32.3505 18.0518 32.0498 17.877 31.7324C17.6817 31.3876 17.8574 30.5742 17.8643 30.1992C17.875 29.6523 17.626 28.7431 17.7608 28.246C17.917 27.6728 17.6162 28.0185 18.1289 27.9052C18.3994 27.8447 19.5166 28.041 19.8535 28.1113C20.3887 28.2226 20.6836 28.5556 21.1055 28.8925C22.2149 29.7822 23.4365 30.4707 24.6797 31.1523C25.6426 31.6855 25.9258 32.3603 25.3106 33.4589ZM18.5137 6.55171C18.9766 7.00386 19.4121 7.53902 20.1025 7.58394C20.7559 7.62788 21.3721 7.27437 21.9424 7.7187C22.5752 8.20698 23.0313 8.82515 23.8711 8.97749C24.6836 9.12495 25.544 8.65034 25.7451 7.81929C25.9404 7.0273 25.5195 6.16597 25.4942 5.37105C25.4942 5.26069 25.5537 4.77046 25.4775 4.68745C25.4209 4.62495 24.9483 4.69526 24.876 4.69722C24.3467 4.71284 23.8187 4.7493 23.292 4.80659C21.3719 5.01442 19.4915 5.4962 17.708 6.23726C17.9453 6.40132 18.2432 6.46675 18.5137 6.55171ZM35.3047 12.038C36.1338 12.038 36.9756 11.6669 36.708 10.708C36.4834 9.90425 36.1006 9.03218 35.169 9.46577C34.5762 9.74116 33.7363 10.4423 33.667 11.1376C33.5879 11.9267 34.752 12.038 35.3047 12.038ZM34.6426 16.2343C35.4893 16.7412 36.7451 16.5029 37.3838 15.7792C37.8828 15.2128 38.1768 14.2294 39.0742 14.2304C39.4693 14.2296 39.8489 14.3843 40.1309 14.6611C40.502 15.0449 40.4287 15.4052 40.5078 15.8857C40.6846 16.9648 41.8418 15.9472 42.1436 15.5292C42.3389 15.2568 42.6035 14.8525 42.5147 14.498C42.4326 14.1669 42.0459 13.8144 41.874 13.5107C41.3721 12.6318 40.959 11.6093 40.207 10.8994C39.4834 10.2158 38.5938 10.2949 37.9072 11.0048C37.3447 11.5908 36.6914 12.0546 36.3066 12.7675C36.0352 13.2685 35.7295 13.5078 35.1797 13.6376C34.877 13.7089 34.5313 13.7353 34.2774 13.9384C33.5703 14.4951 33.9727 15.832 34.6426 16.2343Z" fill="#FF01A2"/>
</svg>
