<svg width="51" height="50" viewBox="0 0 51 50" fill="none" xmlns="http://www.w3.org/2000/svg">
<path d="M45.8027 25C45.8027 13.7822 36.708 4.6875 25.4902 4.6875C14.2725 4.6875 5.17773 13.7822 5.17773 25C5.17773 36.2178 14.2725 45.3125 25.4902 45.3125C36.708 45.3125 45.8027 36.2178 45.8027 25Z" stroke="#FF01A2" stroke-width="0.5" stroke-miterlimit="10"/>
<path d="M44.0021 16.8106C42.4338 16.8203 42.5881 19.7139 40.634 18.3486C39.9084 17.8428 39.4621 17.1074 38.551 16.8838C37.7551 16.6885 36.9396 16.8916 36.1535 17.0274C35.26 17.1817 34.2004 17.251 33.5227 17.9277C32.8674 18.5791 32.5207 19.4531 31.8234 20.1084C30.4748 21.3779 29.9055 22.7637 30.7785 24.5586C31.6184 26.2842 33.3752 27.2207 35.2707 27.0977C37.133 26.9736 39.0676 25.8936 39.0139 28.5996C38.9943 29.5567 39.1945 30.2207 39.4885 31.1104C39.7609 31.9307 39.7424 32.7256 39.8049 33.5723C39.9201 35.1543 40.2111 36.9277 40.9963 38.3252L42.4611 36.2588C42.6418 36.0029 43.0197 35.6445 43.1096 35.3428C43.2687 34.8086 42.9553 33.8906 42.9191 33.292C42.883 32.6934 42.9006 32.0869 42.8088 31.4883C42.6799 30.6494 42.1838 29.8633 42.1154 29.0342C41.9894 27.4902 42.2717 26.2578 41.0822 24.9668C39.9338 23.7217 38.2502 23.4229 36.6418 23.6758C35.8312 23.8027 32.5686 24.3242 33.8781 22.4717C34.1369 22.1074 34.5891 21.8086 34.8801 21.4619C35.133 21.1602 35.3527 20.6055 35.6496 20.3701C35.9465 20.1348 37.3098 19.8643 37.7004 19.9844C38.091 20.1045 38.4982 20.668 38.8371 20.918C39.4632 21.3896 40.1938 21.7031 40.967 21.832C42.301 22.0274 45.09 21.252 45.0686 19.541C45.0646 18.7207 44.3029 17.5781 44.0021 16.8106ZM28.5607 30.8887C28.0402 28.6973 25.0627 27.9649 23.4572 26.7764C22.5344 26.0928 21.7131 25.0371 20.5012 24.9512C19.9426 24.9111 19.4748 25.0322 18.9211 24.8887C18.4133 24.7578 18.0148 24.4844 17.4738 24.5557C16.4631 24.6885 15.8254 25.7686 14.7395 25.6221C13.7092 25.4834 12.6477 24.2783 12.4133 23.2969C12.1125 22.0352 13.1105 21.626 14.1799 21.5137C14.6262 21.4668 15.1271 21.416 15.5559 21.5791C16.1203 21.7891 16.3869 22.3418 16.8937 22.6211C17.8439 23.1416 18.0363 22.3096 17.8908 21.4658C17.673 20.2022 17.4191 19.6865 18.5461 18.8174C19.3273 18.2178 19.9953 17.7842 19.8703 16.707C19.7961 16.0742 19.4494 15.7881 19.7727 15.1582C20.0178 14.6787 20.6906 14.2461 21.1291 13.96C22.2609 13.2217 25.9777 13.2764 24.4592 11.21C24.0129 10.6035 23.1896 9.51954 22.4084 9.37111C21.4318 9.18654 20.9982 10.2764 20.3176 10.7568C19.6144 11.2539 18.2453 11.8184 17.5412 11.0498C16.5939 10.0156 18.1691 9.67579 18.5178 8.95411C18.8664 8.23244 17.7102 6.86818 17.091 6.52247L14.1799 9.78712C14.0963 10.3339 14.1254 10.8919 14.2654 11.427C14.4055 11.9621 14.6535 12.4628 14.9943 12.8985C15.5734 13.6436 16.4953 13.8828 16.5373 14.9004C16.5783 15.877 16.426 16.377 15.7873 17.0635C15.5109 17.3565 15.3156 17.7725 15.0344 18.0469C14.6896 18.3818 14.8176 18.2793 14.2795 18.3711C13.2678 18.542 12.4064 18.8057 11.4289 19.0752C9.8 19.5254 9.64961 16.8643 8.90742 15.8203L6.46601 17.792C6.43965 18.1152 6.8664 18.71 6.98262 19.0615C7.64961 21.0703 8.99531 22.624 9.86445 24.5459C10.7795 26.5811 13.2365 26.0166 14.3215 27.7998C15.2844 29.3819 14.2561 31.3848 14.9768 33.041C15.5002 34.2432 16.7346 34.5059 17.5861 35.3848C18.4562 36.2725 18.4377 37.4873 18.5705 38.6426C18.7203 40.0014 18.9634 41.3484 19.298 42.6738C19.4162 43.1318 19.5246 43.7373 19.8381 44.1152C20.0529 44.375 20.7902 44.5986 20.4924 44.6846C20.9084 44.7529 21.6496 45.1416 21.9963 44.8565C22.4533 44.4815 22.3312 43.3272 22.4103 42.8057C22.6477 41.2529 23.425 39.7344 24.4738 38.5723C25.51 37.4258 26.9299 36.6494 27.8049 35.3496C28.6574 34.082 28.9143 32.3721 28.5607 30.8887ZM25.3 33.459C24.7141 34.5049 23.4094 35.2051 22.5705 36.0361C22.343 36.2617 21.8586 37.043 21.5734 36.874C21.3693 36.7529 21.3 35.7393 21.2248 35.5068C20.8369 34.3365 20.0963 33.3148 19.1047 32.582C18.799 32.3506 18.0412 32.0498 17.8664 31.7324C17.6711 31.3877 17.8469 30.5742 17.8537 30.1992C17.8645 29.6524 17.6154 28.7432 17.7502 28.2461C17.9064 27.6729 17.6057 28.0186 18.1184 27.9053C18.3889 27.8447 19.5061 28.041 19.843 28.1113C20.3781 28.2227 20.673 28.5557 21.0949 28.8926C22.2043 29.7822 23.426 30.4707 24.6691 31.1524C25.632 31.6856 25.9152 32.3604 25.3 33.459ZM18.5031 6.55177C18.966 7.00392 19.4016 7.53908 20.092 7.584C20.7453 7.62794 21.3615 7.27443 21.9318 7.71876C22.5646 8.20704 23.0207 8.82521 23.8605 8.97755C24.673 9.12501 25.5334 8.6504 25.7346 7.81935C25.9299 7.02736 25.509 6.16603 25.4836 5.37111C25.4836 5.26076 25.5432 4.77052 25.467 4.68751C25.4103 4.62501 24.9377 4.69533 24.8654 4.69728C24.3361 4.7129 23.8081 4.74936 23.2814 4.80665C21.3614 5.01448 19.4809 5.49626 17.6975 6.23732C17.9348 6.40138 18.2326 6.46681 18.5031 6.55177ZM35.2941 12.0381C36.1232 12.0381 36.965 11.667 36.6975 10.708C36.4728 9.90431 36.09 9.03224 35.1584 9.46583C34.5656 9.74122 33.7258 10.4424 33.6564 11.1377C33.5773 11.9268 34.7414 12.0381 35.2941 12.0381ZM34.632 16.2344C35.4787 16.7412 36.7346 16.5029 37.3732 15.7793C37.8723 15.2129 38.1662 14.2295 39.0637 14.2305C39.4588 14.2297 39.8383 14.3844 40.1203 14.6611C40.4914 15.0449 40.4182 15.4053 40.4973 15.8858C40.674 16.9649 41.8312 15.9473 42.133 15.5293C42.3283 15.2568 42.593 14.8526 42.5041 14.4981C42.4221 14.167 42.0353 13.8145 41.8635 13.5108C41.3615 12.6318 40.9484 11.6094 40.1965 10.8994C39.4728 10.2158 38.5832 10.2949 37.8967 11.0049C37.3342 11.5908 36.6809 12.0547 36.2961 12.7676C36.0246 13.2686 35.7189 13.5078 35.1691 13.6377C34.8664 13.709 34.5207 13.7354 34.2668 13.9385C33.5598 14.4951 33.9621 15.832 34.632 16.2344Z" fill="#FF01A2"/>
</svg>
