<svg width="51" height="50" viewBox="0 0 51 50" fill="none" xmlns="http://www.w3.org/2000/svg">
<path d="M45.8018 25C45.8018 13.7822 36.707 4.6875 25.4893 4.6875C14.2715 4.6875 5.17676 13.7822 5.17676 25C5.17676 36.2178 14.2715 45.3125 25.4893 45.3125C36.707 45.3125 45.8018 36.2178 45.8018 25Z" stroke="#FF01A2" stroke-width="0.5" stroke-miterlimit="10"/>
<path d="M44.0021 16.8105C42.4338 16.8203 42.5881 19.7138 40.634 18.3486C39.9084 17.8427 39.4621 17.1074 38.551 16.8837C37.7551 16.6884 36.9396 16.8916 36.1535 17.0273C35.26 17.1816 34.2004 17.2509 33.5227 17.9277C32.8674 18.5791 32.5207 19.4531 31.8234 20.1084C30.4748 21.3779 29.9055 22.7636 30.7785 24.5585C31.6184 26.2841 33.3752 27.2207 35.2707 27.0976C37.133 26.9736 39.0676 25.8935 39.0139 28.5996C38.9943 29.5566 39.1945 30.2207 39.4885 31.1103C39.7609 31.9306 39.7424 32.7255 39.8049 33.5722C39.9201 35.1542 40.2111 36.9277 40.9963 38.3251L42.4611 36.2587C42.6418 36.0029 43.0197 35.6445 43.1096 35.3427C43.2687 34.8085 42.9553 33.8906 42.9191 33.2919C42.883 32.6933 42.9006 32.0869 42.8088 31.4882C42.6799 30.6494 42.1838 29.8632 42.1154 29.0341C41.9894 27.4902 42.2717 26.2578 41.0822 24.9667C39.9338 23.7216 38.2502 23.4228 36.6418 23.6757C35.8312 23.8027 32.5686 24.3242 33.8781 22.4716C34.1369 22.1074 34.5891 21.8085 34.8801 21.4619C35.133 21.1601 35.3527 20.6054 35.6496 20.3701C35.9465 20.1347 37.3098 19.8642 37.7004 19.9843C38.091 20.1044 38.4982 20.6679 38.8371 20.9179C39.4632 21.3895 40.1938 21.7031 40.967 21.832C42.301 22.0273 45.09 21.2519 45.0686 19.541C45.0646 18.7207 44.3029 17.5781 44.0021 16.8105ZM28.5607 30.8886C28.0402 28.6972 25.0627 27.9648 23.4572 26.7763C22.5344 26.0927 21.7131 25.0371 20.5012 24.9511C19.9426 24.9111 19.4748 25.0322 18.9211 24.8886C18.4133 24.7578 18.0148 24.4843 17.4738 24.5556C16.4631 24.6884 15.8254 25.7685 14.7395 25.622C13.7092 25.4834 12.6477 24.2783 12.4133 23.2968C12.1125 22.0351 13.1105 21.6259 14.1799 21.5136C14.6262 21.4667 15.1271 21.416 15.5559 21.5791C16.1203 21.789 16.3869 22.3417 16.8937 22.621C17.8439 23.1416 18.0363 22.3095 17.8908 21.4658C17.673 20.2021 17.4191 19.6865 18.5461 18.8173C19.3273 18.2177 19.9953 17.7841 19.8703 16.707C19.7961 16.0742 19.4494 15.788 19.7727 15.1582C20.0178 14.6787 20.6906 14.246 21.1291 13.9599C22.2609 13.2216 25.9777 13.2763 24.4592 11.2099C24.0129 10.6035 23.1896 9.51948 22.4084 9.37105C21.4318 9.18648 20.9982 10.2763 20.3176 10.7568C19.6144 11.2539 18.2453 11.8183 17.5412 11.0498C16.5939 10.0156 18.1691 9.67573 18.5178 8.95405C18.8664 8.23237 17.7102 6.86812 17.091 6.52241L14.1799 9.78706C14.0963 10.3338 14.1254 10.8919 14.2654 11.4269C14.4055 11.962 14.6535 12.4628 14.9943 12.8984C15.5734 13.6435 16.4953 13.8828 16.5373 14.9003C16.5783 15.8769 16.426 16.3769 15.7873 17.0634C15.5109 17.3564 15.3156 17.7724 15.0344 18.0468C14.6896 18.3818 14.8176 18.2792 14.2795 18.371C13.2678 18.5419 12.4064 18.8056 11.4289 19.0751C9.8 19.5253 9.64961 16.8642 8.90742 15.8203L6.46601 17.7919C6.43965 18.1152 6.8664 18.7099 6.98262 19.0615C7.64961 21.0703 8.99531 22.624 9.86445 24.5459C10.7795 26.581 13.2365 26.0166 14.3215 27.7998C15.2844 29.3818 14.2561 31.3847 14.9768 33.041C15.5002 34.2431 16.7346 34.5058 17.5861 35.3847C18.4562 36.2724 18.4377 37.4873 18.5705 38.6425C18.7203 40.0014 18.9634 41.3483 19.298 42.6738C19.4162 43.1318 19.5246 43.7373 19.8381 44.1152C20.0529 44.375 20.7902 44.5986 20.4924 44.6845C20.9084 44.7529 21.6496 45.1416 21.9963 44.8564C22.4533 44.4814 22.3312 43.3271 22.4103 42.8056C22.6477 41.2529 23.425 39.7343 24.4738 38.5722C25.51 37.4257 26.9299 36.6494 27.8049 35.3496C28.6574 34.082 28.9143 32.372 28.5607 30.8886ZM25.3 33.4589C24.7141 34.5048 23.4094 35.205 22.5705 36.0361C22.343 36.2617 21.8586 37.0429 21.5734 36.874C21.3693 36.7529 21.3 35.7392 21.2248 35.5068C20.8369 34.3364 20.0963 33.3148 19.1047 32.582C18.799 32.3505 18.0412 32.0498 17.8664 31.7324C17.6711 31.3876 17.8469 30.5742 17.8537 30.1992C17.8645 29.6523 17.6154 28.7431 17.7502 28.246C17.9064 27.6728 17.6057 28.0185 18.1184 27.9052C18.3889 27.8447 19.5061 28.041 19.843 28.1113C20.3781 28.2226 20.673 28.5556 21.0949 28.8925C22.2043 29.7822 23.426 30.4707 24.6691 31.1523C25.632 31.6855 25.9152 32.3603 25.3 33.4589ZM18.5031 6.55171C18.966 7.00386 19.4016 7.53902 20.092 7.58394C20.7453 7.62788 21.3615 7.27437 21.9318 7.7187C22.5646 8.20698 23.0207 8.82515 23.8605 8.97749C24.673 9.12495 25.5334 8.65034 25.7346 7.81929C25.9299 7.0273 25.509 6.16597 25.4836 5.37105C25.4836 5.26069 25.5432 4.77046 25.467 4.68745C25.4103 4.62495 24.9377 4.69526 24.8654 4.69722C24.3361 4.71284 23.8081 4.7493 23.2814 4.80659C21.3614 5.01442 19.4809 5.4962 17.6975 6.23726C17.9348 6.40132 18.2326 6.46675 18.5031 6.55171ZM35.2941 12.038C36.1232 12.038 36.965 11.6669 36.6975 10.708C36.4728 9.90425 36.09 9.03218 35.1584 9.46577C34.5656 9.74116 33.7258 10.4423 33.6564 11.1376C33.5773 11.9267 34.7414 12.038 35.2941 12.038ZM34.632 16.2343C35.4787 16.7412 36.7346 16.5029 37.3732 15.7792C37.8723 15.2128 38.1662 14.2294 39.0637 14.2304C39.4588 14.2296 39.8383 14.3843 40.1203 14.6611C40.4914 15.0449 40.4182 15.4052 40.4973 15.8857C40.674 16.9648 41.8312 15.9472 42.133 15.5292C42.3283 15.2568 42.593 14.8525 42.5041 14.498C42.4221 14.1669 42.0353 13.8144 41.8635 13.5107C41.3615 12.6318 40.9484 11.6093 40.1965 10.8994C39.4728 10.2158 38.5832 10.2949 37.8967 11.0048C37.3342 11.5908 36.6809 12.0546 36.2961 12.7675C36.0246 13.2685 35.7189 13.5078 35.1691 13.6376C34.8664 13.7089 34.5207 13.7353 34.2668 13.9384C33.5598 14.4951 33.9621 15.832 34.632 16.2343Z" fill="#FF01A2"/>
</svg>
