<svg width="24" height="24" viewBox="0 0 24 24" fill="none" xmlns="http://www.w3.org/2000/svg">
<path d="M17.9947 10.5V19.125C17.9947 19.3712 17.9462 19.615 17.852 19.8425C17.7578 20.07 17.6197 20.2767 17.4455 20.4508C17.2714 20.6249 17.0647 20.763 16.8373 20.8573C16.6098 20.9515 16.3659 21 16.1197 21H4.86972C4.37244 21 3.89553 20.8025 3.5439 20.4508C3.19226 20.0992 2.99472 19.6223 2.99472 19.125V7.875C2.99472 7.37772 3.19226 6.90081 3.5439 6.54917C3.89553 6.19754 4.37244 6 4.86972 6H12.7203M15.7447 3H20.9947V8.25M10.4947 13.5L20.6197 3.375" stroke="#FF01A2" stroke-width="2" stroke-linecap="round" stroke-linejoin="round"/>
</svg>
