<svg width="25" height="25" viewBox="0 0 25 25" fill="none" xmlns="http://www.w3.org/2000/svg">
<path d="M18.4941 10.5859V19.2109C18.4941 19.4572 18.4456 19.701 18.3514 19.9285C18.2572 20.156 18.1191 20.3627 17.945 20.5368C17.7709 20.7109 17.5642 20.849 17.3367 20.9432C17.1092 21.0374 16.8654 21.0859 16.6191 21.0859H5.36914C4.87186 21.0859 4.39495 20.8884 4.04332 20.5368C3.69168 20.1851 3.49414 19.7082 3.49414 19.2109V7.96094C3.49414 7.46366 3.69168 6.98674 4.04332 6.63511C4.39495 6.28348 4.87186 6.08594 5.36914 6.08594H13.2198M16.2441 3.08594H21.4941V8.33594M10.9941 13.5859L21.1191 3.46094" stroke="#FF01A2" stroke-width="2" stroke-linecap="round" stroke-linejoin="round"/>
</svg>
