<svg width="25" height="25" viewBox="0 0 25 25" fill="none" xmlns="http://www.w3.org/2000/svg">
<path d="M18.4951 10.5859V19.2109C18.4951 19.4572 18.4466 19.701 18.3524 19.9285C18.2582 20.156 18.1201 20.3627 17.9459 20.5368C17.7718 20.7109 17.5651 20.849 17.3376 20.9432C17.1102 21.0374 16.8663 21.0859 16.6201 21.0859H5.37012C4.87284 21.0859 4.39592 20.8884 4.04429 20.5368C3.69266 20.1851 3.49512 19.7082 3.49512 19.2109V7.96094C3.49512 7.46366 3.69266 6.98674 4.04429 6.63511C4.39592 6.28348 4.87284 6.08594 5.37012 6.08594H13.2207M16.2451 3.08594H21.4951V8.33594M10.9951 13.5859L21.1201 3.46094" stroke="#FF01A2" stroke-width="2" stroke-linecap="round" stroke-linejoin="round"/>
</svg>
